# xmcd
#
# Track frame offsets: 
#        150
#        12167
#        26025
#        40167
#        54095
#        68734
#        82748
#        94361
#        108194
#        121428
#        134825
#        147425
#        158067
#        170316
#        182041
#        192035
#        202021
#        212816
#        224817
#        234570
#
# Disc length: 3284 seconds
#
# Revision: 1
# Processed by: cddbd v1.5.2PL0 Copyright (c) Steve Scherf et al.
# Submitted via: ExactAudioCopyFreeDBPlugin 1.0
#
DISCID=200cd214
DTITLE=LaVern Baker - It's So Fine:  The Complete Singles As and Bs, 195
DTITLE=3-1959
DYEAR=2010
DGENRE=Rhythm and Blues
TTITLE0=How Can You Leave a Man Like This
TTITLE1=Soul on Fire
TTITLE2=Living My Life for You
TTITLE3=I Can't Hold Any Longer
TTITLE4=Tomorrow Night
TTITLE5=Tweedle Dee
TTITLE6=That's All I Need
TTITLE7=Bop Ting A Ling
TTITLE8=That Lucky Old Sun
TTITLE9=Play it Fair
TTITLE10=My Happiness Forever
TTITLE11=Get Up Get Up (You Sleepy Head)
TTITLE12=Fee Fi Fo Fum
TTITLE13=I'll Still Do the Same for You
TTITLE14=Jim Dandy
TTITLE15=Tra La La
TTITLE16=Still
TTITLE17=I Can't Love You Enough
TTITLE18=Jim Dandy Got Married
TTITLE19=The Game of Love
EXTD=
EXTT0=
EXTT1=
EXTT2=
EXTT3=
EXTT4=
EXTT5=
EXTT6=
EXTT7=
EXTT8=
EXTT9=
EXTT10=
EXTT11=
EXTT12=
EXTT13=
EXTT14=
EXTT15=
EXTT16=
EXTT17=
EXTT18=
EXTT19=
PLAYORDER=
